# xmcd CD database file
#
# Track frame offsets:
#	150
#	14973
#	27487
#	42957
#	60573
#	71453
#	97267
#	108608
#	123332
#	136301
#	148246
#	166325
#	179008
#
# Disc length: 2543 seconds
#
# Revision: 0
# Processed by: cddbd v1.4b42PL1 Copyright (c) Steve Scherf et al.
# Submitted via: Feurio! 1.62 - http://www.feurio.com
#
DISCID=ca09ed0d
DTITLE=John Kirkbride - Street Kids
DYEAR=1900
DGENRE=Blues
TTITLE0=Street Kids
TTITLE1=Walking My Baby
TTITLE2=Gypsy Woman
TTITLE3=What A Wonderful World
TTITLE4=Walking Blues 2
TTITLE5=Hey Joe
TTITLE6=A Bottle Of Whiskey
TTITLE7=Silver Tongued Woman
TTITLE8=My Dream
TTITLE9=Don't Trust A Woman In Your Life
TTITLE10=Terrorist Blues
TTITLE11=Politician Blues
TTITLE12=Ford Model T
EXTD=
EXTT0=
EXTT1=
EXTT2=
EXTT3=
EXTT4=
EXTT5=
EXTT6=
EXTT7=
EXTT8=
EXTT9=
EXTT10=
EXTT11=
EXTT12=
PLAYORDER=
